<svg width="200" height="200" viewBox="0 0 200 200" fill="none" xmlns="http://www.w3.org/2000/svg">
<g clip-path="url(#clip0_310_44)">
<rect width="200" height="200" rx="44" fill="#1D1B1B"/>
<path d="M18.6992 172.906L36.5703 95.2695C40.9323 76.3242 47.5729 61.1224 56.4922 49.6641C72.1172 29.612 89.5977 19.5859 108.934 19.5859C125.21 19.5859 136.635 25.5755 143.211 37.5547C146.792 44.0651 148.582 51.0638 148.582 58.5508C148.582 62.5221 148.094 66.6237 147.117 70.8555C144.513 82.0534 138.165 92.5026 128.074 102.203C121.564 108.453 114.174 113.076 105.906 116.07L128.758 164.801L109.715 172.906H108.738L84.0312 120.172H61.9609L62.2539 119.195L73.1914 103.57H84.7148C96.9544 103.57 106.395 100.576 113.035 94.5859C120.652 87.6849 125.503 79.7747 127.586 70.8555C128.432 67.2096 128.855 63.8242 128.855 60.6992C128.855 54.6445 127.293 49.5013 124.168 45.2695C119.676 39.2148 113.328 36.1875 105.125 36.1875C93.1458 36.1875 81.9479 43.2188 71.5312 57.2812C65.0859 66.0052 59.9427 78.668 56.1016 95.2695L40.2812 164.117L19.6758 172.906H18.6992Z" fill="#EC4D37"/>
<path d="M49.6992 172.906L67.5703 95.2695C71.9323 76.3242 78.5729 61.1224 87.4922 49.6641C103.117 29.612 120.598 19.5859 139.934 19.5859C156.21 19.5859 167.635 25.5755 174.211 37.5547C177.792 44.0651 179.582 51.0638 179.582 58.5508C179.582 62.5221 179.094 66.6237 178.117 70.8555C175.513 82.0534 169.165 92.5026 159.074 102.203C152.564 108.453 145.174 113.076 136.906 116.07L159.758 164.801L140.715 172.906H139.738L115.031 120.172H92.9609L93.2539 119.195L104.191 103.57H115.715C127.954 103.57 137.395 100.576 144.035 94.5859C151.652 87.6849 156.503 79.7747 158.586 70.8555C159.432 67.2096 159.855 63.8242 159.855 60.6992C159.855 54.6445 158.293 49.5013 155.168 45.2695C150.676 39.2148 144.328 36.1875 136.125 36.1875C124.146 36.1875 112.948 43.2188 102.531 57.2812C96.0859 66.0052 90.9427 78.668 87.1016 95.2695L71.2812 164.117L50.6758 172.906H49.6992Z" fill="#EC4D37"/>
</g>
<defs>
<clipPath id="clip0_310_44">
<rect width="200" height="200" rx="44" fill="white"/>
</clipPath>
</defs>
</svg>
