<svg width="200" height="200" viewBox="0 0 200 200" fill="none" xmlns="http://www.w3.org/2000/svg">
<g clip-path="url(#clip0_308_15)">
<rect width="200" height="200" rx="44" fill="#1D1B1B"/>
<path d="M47.8545 124.539L59.4707 74.0752C62.306 61.7607 66.6224 51.8796 72.4199 44.4316C82.5762 31.3978 93.9385 24.8809 106.507 24.8809C117.086 24.8809 124.513 28.7741 128.787 36.5605C131.115 40.7923 132.278 45.3415 132.278 50.208C132.278 52.7894 131.961 55.4554 131.326 58.2061C129.633 65.4847 125.507 72.2767 118.948 78.582C114.716 82.6445 109.913 85.6491 104.539 87.5957L119.393 119.271L107.015 124.539H106.38L90.3203 90.2617H75.9746L76.165 89.627L83.2744 79.4707H90.7646C98.7204 79.4707 104.856 77.5241 109.173 73.6309C114.124 69.1452 117.277 64.0036 118.631 58.2061C119.181 55.8363 119.456 53.6357 119.456 51.6045C119.456 47.6689 118.44 44.3258 116.409 41.5752C113.489 37.6396 109.363 35.6719 104.031 35.6719C96.2448 35.6719 88.9661 40.2422 82.1953 49.3828C78.0059 55.0534 74.6628 63.2842 72.166 74.0752L61.8828 118.826L48.4893 124.539H47.8545Z" fill="#EC4D37"/>
<path d="M66.8545 124.539L78.4707 74.0752C81.306 61.7607 85.6224 51.8796 91.4199 44.4316C101.576 31.3978 112.938 24.8809 125.507 24.8809C136.086 24.8809 143.513 28.7741 147.787 36.5605C150.115 40.7923 151.278 45.3415 151.278 50.208C151.278 52.7894 150.961 55.4554 150.326 58.2061C148.633 65.4847 144.507 72.2767 137.948 78.582C133.716 82.6445 128.913 85.6491 123.539 87.5957L138.393 119.271L126.015 124.539H125.38L109.32 90.2617H94.9746L95.165 89.627L102.274 79.4707H109.765C117.72 79.4707 123.856 77.5241 128.173 73.6309C133.124 69.1452 136.277 64.0036 137.631 58.2061C138.181 55.8363 138.456 53.6357 138.456 51.6045C138.456 47.6689 137.44 44.3258 135.409 41.5752C132.489 37.6396 128.363 35.6719 123.031 35.6719C115.245 35.6719 107.966 40.2422 101.195 49.3828C97.0059 55.0534 93.6628 63.2842 91.166 74.0752L80.8828 118.826L67.4893 124.539H66.8545Z" fill="#EC4D37"/>
<path d="M7.50488 151.586L10.1855 139.94C10.8398 137.099 11.8359 134.818 13.1738 133.1C15.5176 130.092 18.1396 128.588 21.04 128.588C23.4814 128.588 25.1953 129.486 26.1816 131.283C26.7188 132.26 26.9873 133.31 26.9873 134.433C26.9873 135.028 26.9141 135.644 26.7676 136.278C26.377 137.958 25.4248 139.525 23.9111 140.98C22.9346 141.918 21.8262 142.611 20.5859 143.061L24.0137 150.37L21.1572 151.586H21.0107L17.3047 143.676H13.9941L14.0381 143.529L15.6787 141.186H17.4072C19.2432 141.186 20.6592 140.736 21.6553 139.838C22.7979 138.803 23.5254 137.616 23.8379 136.278C23.9648 135.731 24.0283 135.224 24.0283 134.755C24.0283 133.847 23.7939 133.075 23.3252 132.44C22.6514 131.532 21.6992 131.078 20.4688 131.078C18.6719 131.078 16.9922 132.133 15.4297 134.242C14.4629 135.551 13.6914 137.45 13.1152 139.94L10.7422 150.268L7.65137 151.586H7.50488ZM33.1982 151.293C31.0303 151.293 29.5898 150.165 28.877 147.909C28.6816 147.294 28.584 146.601 28.584 145.829C28.584 144.96 28.7061 143.998 28.9502 142.943C29.4385 140.883 30.1709 139.228 31.1475 137.978C32.9053 135.722 34.8779 134.594 37.0654 134.594C39.2725 134.594 40.7129 135.722 41.3867 137.978C41.5723 138.603 41.665 139.296 41.665 140.058C41.665 140.927 41.543 141.889 41.2988 142.943L40.0244 148.451C39.9268 148.881 40.1123 149.096 40.5811 149.096H41.709L41.6797 149.242L40.0391 151.586C37.998 151.586 36.9775 150.854 36.9775 149.389C36.9775 149.105 37.0166 148.793 37.0947 148.451L38.3691 142.943C38.6426 141.732 38.7793 140.751 38.7793 139.999C38.7793 139.628 38.7451 139.301 38.6768 139.018C38.3154 137.729 37.583 137.084 36.4795 137.084C35.376 137.084 34.3506 137.729 33.4033 139.018C32.8076 139.828 32.2998 141.137 31.8799 142.943C31.6064 144.125 31.4697 145.092 31.4697 145.844C31.4697 146.244 31.5088 146.586 31.5869 146.869C31.9385 148.148 32.6611 148.793 33.7549 148.803H34.8828L34.8389 148.949L33.1982 151.293ZM44.8877 151.586L49.9561 129.613L53.0469 128.295H53.1934L51.3916 136.117C52.5244 135.102 53.7207 134.594 54.9805 134.594C57.2363 134.594 58.6768 135.722 59.3018 137.978C59.4775 138.612 59.5654 139.301 59.5654 140.043C59.5654 140.932 59.4434 141.898 59.1992 142.943C58.6523 145.287 57.2607 147.143 55.0244 148.51H58.6426L58.6133 148.656L56.9727 151H50.1172L50.1465 150.854L51.7871 148.51C53.1738 147.68 54.165 146.879 54.7607 146.107C55.5029 145.15 56.0059 144.096 56.2695 142.943C56.5527 141.713 56.6943 140.717 56.6943 139.955C56.6943 139.584 56.6602 139.271 56.5918 139.018C56.2402 137.729 55.5029 137.084 54.3799 137.084C53.2861 137.084 52.2656 137.729 51.3184 139.018C50.7324 139.818 50.2295 141.127 49.8096 142.943L48.125 150.268L45.0342 151.586H44.8877ZM77.9492 134.301L75.957 142.943C75.4883 144.984 74.7559 146.64 73.7598 147.909C71.9922 150.165 70.0244 151.293 67.8564 151.293C65.6201 151.293 64.1797 150.165 63.5352 147.909C63.3496 147.255 63.2568 146.542 63.2568 145.771C63.2568 144.892 63.374 143.949 63.6084 142.943C64.165 140.57 65.5566 138.715 67.7832 137.377H64.165L64.1943 137.23L65.835 134.887H72.6904L72.6611 135.033L71.0205 137.377C69.6533 138.197 68.6621 138.998 68.0469 139.779C67.3145 140.717 66.8115 141.771 66.5381 142.943C66.2646 144.125 66.1279 145.092 66.1279 145.844C66.1279 146.244 66.167 146.586 66.2451 146.869C66.5967 148.158 67.3291 148.803 68.4424 148.803C69.5459 148.803 70.5713 148.158 71.5186 146.869C72.1045 146.068 72.6074 144.76 73.0273 142.943L74.7119 135.619L77.8027 134.301H77.9492ZM83.208 151.586C81.167 151.586 80.1465 150.854 80.1465 149.389C80.1465 149.105 80.1855 148.793 80.2637 148.451L84.6143 129.613L87.7051 128.295H87.8516L83.1934 148.451C83.0957 148.881 83.2812 149.096 83.75 149.096H84.8779L84.8486 149.242L83.208 151.586ZM99.7607 151.586L102.441 139.94C103.096 137.099 104.092 134.818 105.43 133.1C107.773 130.092 110.396 128.588 113.296 128.588C115.737 128.588 117.451 129.486 118.438 131.283C118.975 132.26 119.243 133.31 119.243 134.433C119.243 135.028 119.17 135.644 119.023 136.278C118.633 137.958 117.681 139.525 116.167 140.98C115.19 141.918 114.082 142.611 112.842 143.061L116.27 150.37L113.413 151.586H113.267L109.561 143.676H106.25L106.294 143.529L107.935 141.186H109.663C111.499 141.186 112.915 140.736 113.911 139.838C115.054 138.803 115.781 137.616 116.094 136.278C116.221 135.731 116.284 135.224 116.284 134.755C116.284 133.847 116.05 133.075 115.581 132.44C114.907 131.532 113.955 131.078 112.725 131.078C110.928 131.078 109.248 132.133 107.686 134.242C106.719 135.551 105.947 137.45 105.371 139.94L102.998 150.268L99.9072 151.586H99.7607ZM125.454 151.293C123.286 151.293 121.846 150.165 121.133 147.909C120.938 147.294 120.84 146.601 120.84 145.829C120.84 144.96 120.962 143.998 121.206 142.943C121.694 140.883 122.427 139.228 123.403 137.978C125.161 135.722 127.134 134.594 129.321 134.594C131.528 134.594 132.969 135.722 133.643 137.978C133.828 138.603 133.921 139.296 133.921 140.058C133.921 140.927 133.799 141.889 133.555 142.943L132.28 148.451C132.183 148.881 132.368 149.096 132.837 149.096H133.965L133.936 149.242L132.295 151.586C130.254 151.586 129.233 150.854 129.233 149.389C129.233 149.105 129.272 148.793 129.351 148.451L130.625 142.943C130.898 141.732 131.035 140.751 131.035 139.999C131.035 139.628 131.001 139.301 130.933 139.018C130.571 137.729 129.839 137.084 128.735 137.084C127.632 137.084 126.606 137.729 125.659 139.018C125.063 139.828 124.556 141.137 124.136 142.943C123.862 144.125 123.726 145.092 123.726 145.844C123.726 146.244 123.765 146.586 123.843 146.869C124.194 148.148 124.917 148.793 126.011 148.803H127.139L127.095 148.949L125.454 151.293ZM141.729 130.39C141.846 129.892 142.114 129.467 142.534 129.115C142.954 128.764 143.413 128.588 143.911 128.588C144.409 128.588 144.785 128.764 145.039 129.115C145.225 129.369 145.317 129.647 145.317 129.95C145.317 130.067 145.298 130.214 145.259 130.39C145.112 130.907 144.844 131.327 144.453 131.649C144.023 132.001 143.56 132.177 143.062 132.177C142.573 132.177 142.197 131.996 141.934 131.635C141.758 131.4 141.67 131.142 141.67 130.858C141.67 130.722 141.689 130.565 141.729 130.39ZM132.588 157.299L134.39 154.662C135.024 154.34 135.63 153.793 136.206 153.021C136.792 152.23 137.295 150.922 137.715 149.096L140.82 135.619L143.911 134.301H144.058L140.645 149.096C140.176 151.137 139.443 152.792 138.447 154.062C136.68 156.317 134.712 157.445 132.544 157.445L132.588 157.299ZM144.102 157.592L147.485 142.943C147.954 140.902 148.687 139.247 149.683 137.978C151.45 135.722 153.423 134.594 155.601 134.594C157.739 134.594 159.18 135.722 159.922 137.978C160.117 138.573 160.215 139.257 160.215 140.028C160.215 140.878 160.093 141.85 159.849 142.943C159.302 145.307 157.91 147.162 155.674 148.51H159.292L159.263 148.656L157.622 151H150.767L150.796 150.854L152.437 148.51C153.813 147.68 154.805 146.879 155.41 146.107C156.152 145.15 156.655 144.096 156.919 142.943C157.192 141.742 157.329 140.766 157.329 140.014C157.329 139.623 157.29 139.291 157.212 139.018C156.88 137.729 156.147 137.084 155.015 137.084C153.901 137.084 152.871 137.733 151.924 139.032C151.348 139.823 150.85 141.127 150.43 142.943L147.339 156.273L144.248 157.592H144.102ZM178.584 134.301L176.592 142.943C176.123 144.984 175.391 146.64 174.395 147.909C172.627 150.165 170.659 151.293 168.491 151.293C166.255 151.293 164.814 150.165 164.17 147.909C163.984 147.255 163.892 146.542 163.892 145.771C163.892 144.892 164.009 143.949 164.243 142.943C164.8 140.57 166.191 138.715 168.418 137.377H164.8L164.829 137.23L166.47 134.887H173.325L173.296 135.033L171.655 137.377C170.288 138.197 169.297 138.998 168.682 139.779C167.949 140.717 167.446 141.771 167.173 142.943C166.899 144.125 166.763 145.092 166.763 145.844C166.763 146.244 166.802 146.586 166.88 146.869C167.231 148.158 167.964 148.803 169.077 148.803C170.181 148.803 171.206 148.158 172.153 146.869C172.739 146.068 173.242 144.76 173.662 142.943L175.347 135.619L178.438 134.301H178.584ZM184.971 151.586C182.93 151.586 181.909 150.854 181.909 149.389C181.909 149.105 181.948 148.793 182.026 148.451L184.59 137.377H180.825L180.854 137.23L182.495 134.887H185.161L186.377 129.613L189.468 128.295H189.614L188.091 134.887H191.855L191.826 135.033L190.186 137.377H187.52L184.956 148.451C184.858 148.881 185.044 149.096 185.513 149.096H186.641L186.611 149.242L184.971 151.586Z" fill="#EC4D37"/>
</g>
<defs>
<clipPath id="clip0_308_15">
<rect width="200" height="200" rx="44" fill="white"/>
</clipPath>
</defs>
</svg>
