<svg width="400" height="200" viewBox="0 0 400 200" fill="none" xmlns="http://www.w3.org/2000/svg">
<rect width="400" height="200" fill="#5D8CFF"/>
<path d="M118.008 146.048C105.805 146.048 96.632 141.824 90.488 133.376C84.4293 124.928 81.4 113.963 81.4 100.48C81.4 86.9973 84.4293 76.032 90.488 67.584C96.632 59.136 105.805 54.912 118.008 54.912C126.029 54.912 133.325 56.9173 139.896 60.928L136.312 69.504C130.68 66.0053 124.579 64.256 118.008 64.256C109.219 64.256 102.605 67.6267 98.168 74.368C93.816 81.024 91.64 89.728 91.64 100.48C91.64 111.232 93.816 119.979 98.168 126.72C102.605 133.376 109.219 136.704 118.008 136.704C125.261 136.704 131.789 134.912 137.592 131.328L142.072 139.264C134.733 143.787 126.712 146.048 118.008 146.048ZM174.223 145.792C166.884 145.792 160.868 143.019 156.175 137.472C151.482 131.925 149.135 123.947 149.135 113.536C149.135 103.04 152.079 94.5493 157.967 88.064C163.94 81.4933 171.322 78.208 180.111 78.208C188.986 78.208 196.964 80.6827 204.047 85.632V131.2L205.327 144L196.879 144.64L194.703 133.12C189.924 141.568 183.098 145.792 174.223 145.792ZM158.863 113.28C158.863 120.96 160.484 126.848 163.727 130.944C166.97 135.04 171.108 137.088 176.143 137.088C181.263 137.088 185.572 134.571 189.071 129.536C192.57 124.416 194.319 117.205 194.319 107.904V90.112C190.052 87.9787 185.487 86.912 180.623 86.912C174.308 86.912 169.103 89.3867 165.007 94.336C160.911 99.2 158.863 105.515 158.863 113.28ZM236.233 144H226.505V92.8L225.225 80L233.673 79.36L236.233 94.72C238.793 89.4293 242.036 85.4187 245.961 82.688C249.886 79.9573 254.153 78.592 258.761 78.592L259.401 88.32C244.382 89.5147 236.66 100.992 236.233 122.752V144ZM272.145 144V56.96H299.153C306.406 56.96 312.55 59.4773 317.585 64.512C322.62 69.5467 325.137 75.6907 325.137 82.944C325.137 90.1973 322.62 96.3413 317.585 101.376C312.55 106.411 306.406 108.928 299.153 108.928H282.385V144H272.145ZM298.769 66.304H282.385V99.584H298.769C303.206 99.584 307.004 97.9627 310.161 94.72C313.404 91.392 315.025 87.4667 315.025 82.944C315.025 78.4213 313.404 74.5387 310.161 71.296C307.004 67.968 303.206 66.304 298.769 66.304Z" fill="#7447FE"/>
</svg>
