<svg width="200" height="200" viewBox="0 0 200 200" fill="none" xmlns="http://www.w3.org/2000/svg">
<g clip-path="url(#clip0_302_2)">
<rect width="200" height="200" rx="44" fill="#8800FF"/>
<g filter="url(#filter0_d_302_2)">
<path d="M119.72 170.9C113.34 170.9 108.023 168.58 103.77 163.94C99.71 159.107 97.68 152.243 97.68 143.35C97.68 127.11 104.543 106.327 118.27 81C112.47 83.1267 107.25 84.19 102.61 84.19C93.1367 84.19 84.8233 80.3233 77.67 72.59C76.51 78.97 74.3833 86.0267 71.29 93.76C68.39 101.3 65.2 108.743 61.72 116.09C58.24 123.243 54.9533 129.527 51.86 134.94C51.0867 136.487 50.12 137.453 48.96 137.84C47.8 138.227 46.93 138.42 46.35 138.42C43.45 138.42 42 136.97 42 134.07C45.8667 127.883 49.7333 120.73 53.6 112.61C57.4667 104.297 61.0433 95.5967 64.33 86.51C67.81 77.4233 70.42 68.6267 72.16 60.12C71 55.48 70.42 50.26 70.42 44.46C70.42 34.9867 72.5467 30.25 76.8 30.25C81.44 30.25 83.76 34.9867 83.76 44.46C83.76 46.5867 83.5667 49.0033 83.18 51.71C82.9867 54.4167 82.6967 57.3167 82.31 60.41C83.0833 64.47 85.5 67.7567 89.56 70.27C93.8133 72.7833 98.26 74.04 102.9 74.04C109.473 74.04 117.883 70.6567 128.13 63.89C130.257 62.3433 131.513 61.57 131.9 61.57C135.573 61.57 137.41 63.31 137.41 66.79C137.41 67.1767 137.313 67.5633 137.12 67.95C137.12 68.3367 137.023 68.7233 136.83 69.11C131.997 77.4233 127.647 85.4467 123.78 93.18C119.913 100.72 116.53 108.163 113.63 115.51C109.763 125.37 107.83 134.36 107.83 142.48C107.83 154.853 111.89 161.04 120.01 161.04C126.39 161.04 132.19 158.237 137.41 152.63C142.823 146.83 147.657 140.643 151.91 134.07C152.877 132.523 154.23 130.493 155.97 127.98C157.903 125.467 159.547 124.21 160.9 124.21C161.867 124.21 162.543 124.403 162.93 124.79C163.51 125.177 163.8 126.143 163.8 127.69C163.8 128.657 163.51 130.01 162.93 131.75C162.543 133.49 162.157 134.553 161.77 134.94C156.55 144.413 150.557 152.823 143.79 160.17C137.217 167.323 129.193 170.9 119.72 170.9Z" fill="white"/>
</g>
</g>
<defs>
<filter id="filter0_d_302_2" x="42" y="30.25" width="131.8" height="146.65" filterUnits="userSpaceOnUse" color-interpolation-filters="sRGB">
<feFlood flood-opacity="0" result="BackgroundImageFix"/>
<feColorMatrix in="SourceAlpha" type="matrix" values="0 0 0 0 0 0 0 0 0 0 0 0 0 0 0 0 0 0 127 0" result="hardAlpha"/>
<feOffset dx="9" dy="5"/>
<feGaussianBlur stdDeviation="0.5"/>
<feComposite in2="hardAlpha" operator="out"/>
<feColorMatrix type="matrix" values="0 0 0 0 0 0 0 0 0 0 0 0 0 0 0 0 0 0 0.25 0"/>
<feBlend mode="normal" in2="BackgroundImageFix" result="effect1_dropShadow_302_2"/>
<feBlend mode="normal" in="SourceGraphic" in2="effect1_dropShadow_302_2" result="shape"/>
</filter>
<clipPath id="clip0_302_2">
<rect width="200" height="200" rx="44" fill="white"/>
</clipPath>
</defs>
</svg>
