<svg width="400" height="200" viewBox="0 0 400 200" fill="none" xmlns="http://www.w3.org/2000/svg">
<rect width="400" height="200" fill="#FF5474"/>
<path d="M63.24 144L66.44 56.96H78.344L105.096 118.272L131.976 56.96H143.88L147.08 144H136.84L134.28 75.904L110.472 130.432H99.848L75.912 75.904L73.48 144H63.24ZM203.199 115.84H163.775V106.624H203.199V115.84ZM251.481 56.96L280.793 144H270.169L261.721 118.4H228.697L220.249 144H209.625L238.937 56.96H251.481ZM245.209 68.224L231.641 109.184H258.649L245.209 68.224ZM321.258 146.048C309.055 146.048 299.882 141.824 293.738 133.376C287.679 124.928 284.65 113.963 284.65 100.48C284.65 86.9973 287.679 76.032 293.738 67.584C299.882 59.136 309.055 54.912 321.258 54.912C329.279 54.912 336.575 56.9173 343.146 60.928L339.562 69.504C333.93 66.0053 327.829 64.256 321.258 64.256C312.469 64.256 305.855 67.6267 301.418 74.368C297.066 81.024 294.89 89.728 294.89 100.48C294.89 111.232 297.066 119.979 301.418 126.72C305.855 133.376 312.469 136.704 321.258 136.704C328.511 136.704 335.039 134.912 340.842 131.328L345.322 139.264C337.983 143.787 329.962 146.048 321.258 146.048Z" fill="#FEAD05"/>
</svg>
